C:\OpenCap\opencap-processing\Data\7866dab3-7210-45d6-b98e-60491a15613b\OpenSimData\Dynamics\TRJave50\GRF_TRJave50_0.mot
version=1
nRows=4
nColumns=109
inDegrees=yes
endheader 
time	ground_force_SmoothSphereHalfSpaceForce_s1_r_vx	ground_force_SmoothSphereHalfSpaceForce_s1_r_vy	ground_force_SmoothSphereHalfSpaceForce_s1_r_vz	ground_force_SmoothSphereHalfSpaceForce_s1_r_px	ground_force_SmoothSphereHalfSpaceForce_s1_r_py	ground_force_SmoothSphereHalfSpaceForce_s1_r_pz	ground_torque_SmoothSphereHalfSpaceForce_s1_r_x	ground_torque_SmoothSphereHalfSpaceForce_s1_r_y	ground_torque_SmoothSphereHalfSpaceForce_s1_r_z	ground_force_SmoothSphereHalfSpaceForce_s2_r_vx	ground_force_SmoothSphereHalfSpaceForce_s2_r_vy	ground_force_SmoothSphereHalfSpaceForce_s2_r_vz	ground_force_SmoothSphereHalfSpaceForce_s2_r_px	ground_force_SmoothSphereHalfSpaceForce_s2_r_py	ground_force_SmoothSphereHalfSpaceForce_s2_r_pz	ground_torque_SmoothSphereHalfSpaceForce_s2_r_x	ground_torque_SmoothSphereHalfSpaceForce_s2_r_y	ground_torque_SmoothSphereHalfSpaceForce_s2_r_z	ground_force_SmoothSphereHalfSpaceForce_s3_r_vx	ground_force_SmoothSphereHalfSpaceForce_s3_r_vy	ground_force_SmoothSphereHalfSpaceForce_s3_r_vz	ground_force_SmoothSphereHalfSpaceForce_s3_r_px	ground_force_SmoothSphereHalfSpaceForce_s3_r_py	ground_force_SmoothSphereHalfSpaceForce_s3_r_pz	ground_torque_SmoothSphereHalfSpaceForce_s3_r_x	ground_torque_SmoothSphereHalfSpaceForce_s3_r_y	ground_torque_SmoothSphereHalfSpaceForce_s3_r_z	ground_force_SmoothSphereHalfSpaceForce_s4_r_vx	ground_force_SmoothSphereHalfSpaceForce_s4_r_vy	ground_force_SmoothSphereHalfSpaceForce_s4_r_vz	ground_force_SmoothSphereHalfSpaceForce_s4_r_px	ground_force_SmoothSphereHalfSpaceForce_s4_r_py	ground_force_SmoothSphereHalfSpaceForce_s4_r_pz	ground_torque_SmoothSphereHalfSpaceForce_s4_r_x	ground_torque_SmoothSphereHalfSpaceForce_s4_r_y	ground_torque_SmoothSphereHalfSpaceForce_s4_r_z	ground_force_SmoothSphereHalfSpaceForce_s5_r_vx	ground_force_SmoothSphereHalfSpaceForce_s5_r_vy	ground_force_SmoothSphereHalfSpaceForce_s5_r_vz	ground_force_SmoothSphereHalfSpaceForce_s5_r_px	ground_force_SmoothSphereHalfSpaceForce_s5_r_py	ground_force_SmoothSphereHalfSpaceForce_s5_r_pz	ground_torque_SmoothSphereHalfSpaceForce_s5_r_x	ground_torque_SmoothSphereHalfSpaceForce_s5_r_y	ground_torque_SmoothSphereHalfSpaceForce_s5_r_z	ground_force_SmoothSphereHalfSpaceForce_s6_r_vx	ground_force_SmoothSphereHalfSpaceForce_s6_r_vy	ground_force_SmoothSphereHalfSpaceForce_s6_r_vz	ground_force_SmoothSphereHalfSpaceForce_s6_r_px	ground_force_SmoothSphereHalfSpaceForce_s6_r_py	ground_force_SmoothSphereHalfSpaceForce_s6_r_pz	ground_torque_SmoothSphereHalfSpaceForce_s6_r_x	ground_torque_SmoothSphereHalfSpaceForce_s6_r_y	ground_torque_SmoothSphereHalfSpaceForce_s6_r_z	ground_force_SmoothSphereHalfSpaceForce_s1_l_vx	ground_force_SmoothSphereHalfSpaceForce_s1_l_vy	ground_force_SmoothSphereHalfSpaceForce_s1_l_vz	ground_force_SmoothSphereHalfSpaceForce_s1_l_px	ground_force_SmoothSphereHalfSpaceForce_s1_l_py	ground_force_SmoothSphereHalfSpaceForce_s1_l_pz	ground_torque_SmoothSphereHalfSpaceForce_s1_l_x	ground_torque_SmoothSphereHalfSpaceForce_s1_l_y	ground_torque_SmoothSphereHalfSpaceForce_s1_l_z	ground_force_SmoothSphereHalfSpaceForce_s2_l_vx	ground_force_SmoothSphereHalfSpaceForce_s2_l_vy	ground_force_SmoothSphereHalfSpaceForce_s2_l_vz	ground_force_SmoothSphereHalfSpaceForce_s2_l_px	ground_force_SmoothSphereHalfSpaceForce_s2_l_py	ground_force_SmoothSphereHalfSpaceForce_s2_l_pz	ground_torque_SmoothSphereHalfSpaceForce_s2_l_x	ground_torque_SmoothSphereHalfSpaceForce_s2_l_y	ground_torque_SmoothSphereHalfSpaceForce_s2_l_z	ground_force_SmoothSphereHalfSpaceForce_s3_l_vx	ground_force_SmoothSphereHalfSpaceForce_s3_l_vy	ground_force_SmoothSphereHalfSpaceForce_s3_l_vz	ground_force_SmoothSphereHalfSpaceForce_s3_l_px	ground_force_SmoothSphereHalfSpaceForce_s3_l_py	ground_force_SmoothSphereHalfSpaceForce_s3_l_pz	ground_torque_SmoothSphereHalfSpaceForce_s3_l_x	ground_torque_SmoothSphereHalfSpaceForce_s3_l_y	ground_torque_SmoothSphereHalfSpaceForce_s3_l_z	ground_force_SmoothSphereHalfSpaceForce_s4_l_vx	ground_force_SmoothSphereHalfSpaceForce_s4_l_vy	ground_force_SmoothSphereHalfSpaceForce_s4_l_vz	ground_force_SmoothSphereHalfSpaceForce_s4_l_px	ground_force_SmoothSphereHalfSpaceForce_s4_l_py	ground_force_SmoothSphereHalfSpaceForce_s4_l_pz	ground_torque_SmoothSphereHalfSpaceForce_s4_l_x	ground_torque_SmoothSphereHalfSpaceForce_s4_l_y	ground_torque_SmoothSphereHalfSpaceForce_s4_l_z	ground_force_SmoothSphereHalfSpaceForce_s5_l_vx	ground_force_SmoothSphereHalfSpaceForce_s5_l_vy	ground_force_SmoothSphereHalfSpaceForce_s5_l_vz	ground_force_SmoothSphereHalfSpaceForce_s5_l_px	ground_force_SmoothSphereHalfSpaceForce_s5_l_py	ground_force_SmoothSphereHalfSpaceForce_s5_l_pz	ground_torque_SmoothSphereHalfSpaceForce_s5_l_x	ground_torque_SmoothSphereHalfSpaceForce_s5_l_y	ground_torque_SmoothSphereHalfSpaceForce_s5_l_z	ground_force_SmoothSphereHalfSpaceForce_s6_l_vx	ground_force_SmoothSphereHalfSpaceForce_s6_l_vy	ground_force_SmoothSphereHalfSpaceForce_s6_l_vz	ground_force_SmoothSphereHalfSpaceForce_s6_l_px	ground_force_SmoothSphereHalfSpaceForce_s6_l_py	ground_force_SmoothSphereHalfSpaceForce_s6_l_pz	ground_torque_SmoothSphereHalfSpaceForce_s6_l_x	ground_torque_SmoothSphereHalfSpaceForce_s6_l_y	ground_torque_SmoothSphereHalfSpaceForce_s6_l_z	
          4.20000000	        -60.25471504	         40.89212341	         64.30130509	         -5.50010001	         -0.01281017	          0.46040394	          0.00000000	          0.00000000	          0.00000000	         -0.01173960	          0.00706539	          0.00624118	         -5.35655366	          0.00966704	          0.47688921	          0.00000000	          0.00000000	          0.00000000	         -3.39179037	          2.60422593	          3.01962998	         -5.39202886	          0.00359698	          0.55129194	          0.00000000	          0.00000000	          0.00000000	       -208.15916700	        151.72662578	        209.66351133	         -5.44784761	         -0.00490074	          0.50791714	          0.00000000	          0.00000000	          0.00000000	         -0.00000358	          0.00000215	          0.00000104	         -5.28830209	          0.01748253	          0.50766929	          0.00000000	          0.00000000	          0.00000000	         -0.01003275	          0.00756684	          0.00598716	         -5.32264494	          0.00997804	          0.58229820	          0.00000000	          0.00000000	          0.00000000	         -0.00000000	         -0.00000000	         -0.00000000	         -6.02655649	          0.14054190	          0.25145100	          0.00000000	          0.00000000	          0.00000000	         -0.00000000	         -0.00000000	         -0.00000000	         -6.09599241	          0.07355664	          0.26279861	          0.00000000	          0.00000000	          0.00000000	         -0.00000000	         -0.00000000	         -0.00000000	         -6.04956195	          0.07506188	          0.19368429	          0.00000000	          0.00000000	          0.00000000	         -0.00000000	         -0.00000000	         -0.00000000	         -6.03634851	          0.10819793	          0.22050525	          0.00000000	          0.00000000	          0.00000000	         -0.00000000	         -0.00000000	          0.00000000	         -6.09735798	          0.03419530	          0.26471880	          0.00000000	          0.00000000	          0.00000000	         -0.00000000	         -0.00000000	          0.00000000	         -6.03122586	          0.03528431	          0.21376810	          0.00000000	          0.00000000	          0.00000000	
          4.21000000	       -202.75310254	        172.67254074	         32.89067436	         -5.48553601	         -0.01170888	          0.45028253	          0.00000000	          0.00000000	          0.00000000	         -0.28164330	          0.23158454	         -0.02065195	         -5.34021016	          0.00609737	          0.47287376	          0.00000000	          0.00000000	          0.00000000	        -16.08131319	         13.88231860	         -0.25002157	         -5.37912489	          0.00046778	          0.54567838	          0.00000000	          0.00000000	          0.00000000	       -191.55697743	        164.13819542	         15.35088349	         -5.43422265	         -0.00587736	          0.49997122	          0.00000000	          0.00000000	          0.00000000	         -0.00120777	          0.00100281	         -0.00026732	         -5.27233846	          0.01166622	          0.50652514	          0.00000000	          0.00000000	          0.00000000	         -1.09753637	          0.96210440	         -0.20953750	         -5.31037197	          0.00472768	          0.57956659	          0.00000000	          0.00000000	          0.00000000	         -0.00000000	         -0.00000000	         -0.00000000	         -5.95679747	          0.13934428	          0.25566670	          0.00000000	          0.00000000	          0.00000000	         -0.00000000	         -0.00000000	         -0.00000000	         -6.01855223	          0.07044110	          0.26536090	          0.00000000	          0.00000000	          0.00000000	         -0.00000000	         -0.00000000	         -0.00000000	         -5.97189587	          0.07357552	          0.19661844	          0.00000000	          0.00000000	          0.00000000	         -0.00000000	         -0.00000000	         -0.00000000	         -5.96266983	          0.10691323	          0.22409965	          0.00000000	          0.00000000	          0.00000000	         -0.00000000	          0.00000000	          0.00000000	         -6.01799838	          0.03090937	          0.26395241	          0.00000000	          0.00000000	          0.00000000	         -0.00000000	         -0.00000000	          0.00000000	         -5.95361595	          0.03358639	          0.21103351	          0.00000000	          0.00000000	          0.00000000	
          4.22000000	       -158.52139658	        321.88844148	         56.43407886	         -5.48019063	         -0.01144972	          0.44961912	          0.00000000	          0.00000000	          0.00000000	         -2.01887060	          3.15577775	         -1.12634005	         -5.33366760	          0.00307344	          0.47381689	          0.00000000	          0.00000000	          0.00000000	        -21.00405856	         64.66544543	        -13.43220508	         -5.37375120	         -0.00190624	          0.54617541	          0.00000000	          0.00000000	          0.00000000	        -98.45767223	        246.92083148	         -2.24079121	         -5.42890328	         -0.00689868	          0.49986665	          0.00000000	          0.00000000	          0.00000000	         -0.05231426	          0.08638892	         -0.05955501	         -5.26570608	          0.00723028	          0.50829292	          0.00000000	          0.00000000	          0.00000000	         -4.10105941	         12.75875120	         -8.10009838	         -5.30508020	          0.00109153	          0.58090914	          0.00000000	          0.00000000	          0.00000000	         -0.00000000	         -0.00000000	         -0.00000000	         -5.88834183	          0.13734692	          0.25970490	          0.00000000	          0.00000000	          0.00000000	         -0.00000000	         -0.00000000	         -0.00000000	         -5.94090766	          0.06648773	          0.26684301	          0.00000000	          0.00000000	          0.00000000	         -0.00000000	         -0.00000000	         -0.00000000	         -5.89287235	          0.07144749	          0.19949428	          0.00000000	          0.00000000	          0.00000000	         -0.00000000	         -0.00000000	         -0.00000000	         -5.88893863	          0.10491373	          0.22761051	          0.00000000	          0.00000000	          0.00000000	         -0.00000000	          0.00000000	          0.00000000	         -5.93727285	          0.02695980	          0.26267482	          0.00000000	          0.00000000	          0.00000000	         -0.00000000	          0.00000000	          0.00000000	         -5.87360816	          0.03159302	          0.20942901	          0.00000000	          0.00000000	          0.00000000	
          4.23000000	       -228.63209362	        466.52210203	        148.42871442	         -5.47845375	         -0.01190402	          0.44927194	          0.00000000	          0.00000000	          0.00000000	         -7.60017271	         16.27303791	        -10.17574858	         -5.33140122	          0.00034583	          0.47522456	          0.00000000	          0.00000000	          0.00000000	          4.96094571	        182.24523466	        -65.17282581	         -5.37253430	         -0.00430072	          0.54708099	          0.00000000	          0.00000000	          0.00000000	        -79.34360641	        365.25589927	         -2.55838243	         -5.42745959	         -0.00830146	          0.50012207	          0.00000000	          0.00000000	          0.00000000	         -0.67460671	          2.20126121	         -2.01371556	         -5.26358704	          0.00365454	          0.51064374	          0.00000000	          0.00000000	          0.00000000	          6.11890231	         69.76071855	        -64.25585874	         -5.30415448	         -0.00189799	          0.58279036	          0.00000000	          0.00000000	          0.00000000	         -0.00000000	         -0.00000000	         -0.00000000	         -5.82110202	          0.13437339	          0.26371760	          0.00000000	          0.00000000	          0.00000000	         -0.00000000	         -0.00000000	         -0.00000000	         -5.86293161	          0.06169597	          0.26824226	          0.00000000	          0.00000000	          0.00000000	         -0.00000000	         -0.00000000	         -0.00000000	         -5.81302399	          0.06867455	          0.20300373	          0.00000000	          0.00000000	          0.00000000	         -0.00000000	         -0.00000000	         -0.00000000	         -5.81539678	          0.10210856	          0.23144647	          0.00000000	          0.00000000	          0.00000000	         -0.00000004	          0.00000001	          0.00000000	         -5.85511549	          0.02235832	          0.26194344	          0.00000000	          0.00000000	          0.00000000	         -0.00000000	          0.00000000	          0.00000000	         -5.79163335	          0.02923315	          0.20945402	          0.00000000	          0.00000000	          0.00000000	
